<svg width="1280" height="640" xmlns="http://www.w3.org/2000/svg">
 <g>
  <title>background</title>
  <rect x="-1" y="-1" width="1282" height="642" id="canvas_background" fill="none"/>
 </g>

 <g>
  <title>Layer 1</title>
  <g id="logo-group" stroke="null">
   <g id="logo-center" stroke="null">
    <g id="title" text-anchor="middle" font-family="'Brandmark Stencil 1'" font-size="72px" font-weight="normal" font-style="normal" stroke="null">
     <path id="path98315" d="m336.0267,439.9931c-2.8421,0 -5.36841,-2.21052 -5.36841,-5.36841l0,-207.15738c0,-2.8421 2.52631,-5.36841 5.36841,-5.36841c3.15789,0 5.36841,2.52631 5.36841,5.36841l0,207.15738c0,3.15789 -2.21052,5.36841 -5.36841,5.36841zm118.42076,0c-1.57894,0 -2.8421,-0.63158 -4.10525,-1.57894l-93.47345,-103.57869c-1.57894,-2.21052 -1.57894,-5.36841 0,-7.26314l93.47345,-103.57869c1.89473,-2.21052 5.36841,-2.52631 7.57893,-0.31579c2.21052,1.89473 2.21052,5.36841 0.31579,7.57893l-89.99977,99.78922l89.99977,100.10501c1.89473,2.21052 1.89473,5.6842 -0.31579,7.57893c-0.94737,0.94737 -2.21052,1.26315 -3.47368,1.26315l0,0.00001z" stroke-width="10" stroke-miterlimit="2" fill="#3b3569" stroke="#3b3569"/>
     <path id="path98317" d="m546.2136,411.88792c2.8421,0 5.36841,-2.52631 5.36841,-5.36841l0,-178.7364c0,-3.15789 -2.52631,-5.36841 -5.36841,-5.36841c-2.8421,0 -5.36841,2.21052 -5.36841,5.36841l0,178.7364c0,2.8421 2.52631,5.36841 5.36841,5.36841zm174.94693,-178.7364l121.57864,0c2.8421,0 5.36841,-2.52631 5.36841,-5.36841c0,-3.15789 -2.52631,-5.36841 -5.36841,-5.36841l-121.57864,0c-2.8421,0 -5.05262,2.21052 -5.05262,5.36841c0,2.8421 2.21052,5.36841 5.05262,5.36841zm0,100.10501l119.05233,0c3.15789,0 5.36841,-2.52631 5.36841,-5.36841c0,-2.8421 -2.21052,-5.36841 -5.36841,-5.36841l-119.05233,0c-2.8421,0 -5.05262,2.52631 -5.05262,5.36841c0,2.8421 2.21052,5.36841 5.05262,5.36841zm121.57864,96.31555l-296.52557,0c-2.8421,0 -5.36841,2.21052 -5.36841,5.36841c0,2.8421 2.52631,5.05262 5.36841,5.05262l296.52557,0c2.8421,0 5.36841,-2.21052 5.36841,-5.05262c0,-3.15789 -2.52631,-5.36841 -5.36841,-5.36841z" stroke-width="10" stroke-miterlimit="2" fill="#743a58" stroke="#743a58"/>
     <path id="path98319" d="m929.36383,222.41471c-2.8421,0 -5.36841,2.21052 -5.36841,5.36841l0,207.15738c0,2.8421 2.52631,5.05262 5.36841,5.05262c2.8421,0 5.36841,-2.21052 5.36841,-5.05262l0,-207.15738c0,-3.15789 -2.52631,-5.36841 -5.36841,-5.36841z" stroke-width="10" stroke-miterlimit="2" fill="#ac3f48" stroke="#ac3f48"/>
     <path id="path98321" d="m1192.93883,222.4147c-2.8421,0 -5.05262,2.21052 -5.05262,5.36841l0,191.05215l-144.63122,-194.21004c-1.26315,-1.89473 -3.78946,-2.8421 -5.6842,-1.89473c-2.21052,0.63158 -3.78946,2.52631 -3.78946,5.05262l0,207.15738c0,2.8421 2.52631,5.05262 5.36841,5.05262c2.8421,0 5.36841,-2.21052 5.36841,-5.05262l0,-191.05215l144.31543,194.21004c0.94737,1.26315 2.52631,1.89473 4.10525,1.89473l1.89473,0c2.21052,-0.94737 3.47368,-2.8421 3.47368,-5.05262l0,-207.15738c0,-3.15789 -2.21052,-5.36841 -5.36841,-5.36841z" stroke-width="10" stroke-miterlimit="2" fill="#e54437" stroke="#e54437"/>
    </g>
   </g>
  </g>
  <g stroke="null">
   <path stroke="null" p-id="10484" fill="#E0EBFE" d="m152.4075,350.72218s-39.47011,-16.33024 -57.93909,-73.58264c0,0 -28.64051,37.96798 -14.9068,80.52103s30.68626,52.98208 30.68626,52.98208s44.52011,-5.35042 57.12365,-22.63201c0,0 -13.66218,-6.0085 -14.96402,-37.28845z"/>
   <path stroke="null" data-spm-anchor-id="a313x.7781069.0.i45" p-id="10485" fill="#27205b" d="m224.13037,302.86878a61.35106,61.35106 0 0 0 -19.43463,-3.57649a128.48172,128.48172 0 0 0 -11.12287,-50.77181c-4.64228,-10.35751 -10.42188,-20.50758 -21.15135,-24.58477a7.1029,7.1029 0 0 0 -3.4835,-0.40057c-45.01366,5.96558 -86.38646,42.17393 -96.24326,84.22626a114.30452,114.30452 0 0 0 -2.1602,39.57025c3.46204,29.37726 18.32592,57.22379 40.77195,76.39376c20.67209,17.63923 48.49716,28.71204 75.5211,28.71204c21.95248,0 43.37563,-7.30319 60.01345,-24.32011c20.30014,-20.75078 28.11834,-51.76607 19.94249,-79.03321c-6.40907,-21.33732 -22.74646,-39.05524 -42.65318,-46.21536zm-55.29249,-64.87032c4.73527,2.58938 8.13293,8.46197 11.68796,16.38031a114.27591,114.27591 0 0 1 9.87826,46.22967c-10.56494,2.18881 -20.4575,7.05999 -28.16126,14.3131c-8.38329,7.88258 -13.88392,18.32592 -16.1085,29.32004c-9.89972,-6.40191 -19.0126,-15.5148 -27.0597,-27.51749c-7.39617,-11.04419 -13.24731,-23.29008 -18.7694,-35.40722c15.60779,-22.21714 41.15821,-39.06954 68.52549,-43.31841l0.00715,0zm-84.09036,107.66656a99.99857,99.99857 0 0 1 1.87408,-34.64185c1.83116,-7.81105 4.99278,-15.37174 9.10574,-22.51756c5.09292,10.99412 10.5864,22.0097 17.41034,32.19553c9.35609,13.96976 20.14993,24.39164 32.02386,31.35148c-0.50071,8.55496 0.94419,17.14568 4.61367,24.87089c2.4034,5.07861 5.77245,9.57068 9.67797,13.44044a80.00601,80.00601 0 0 1 -46.4228,15.25014c-15.48619,-16.26586 -25.65772,-37.59603 -28.28286,-59.94907zm119.95537,90.37067c-28.34008,6.82394 -61.15793,-3.61225 -84.10467,-23.19709c-0.1216,-0.10729 -0.22174,-0.2289 -0.34334,-0.32904a87.17329,87.17329 0 0 0 44.77046,-17.39603c7.46055,5.43626 16.29447,8.72663 25.29291,8.84108a40.34277,40.34277 0 0 0 15.0284,-2.91841c0.44348,1.30899 0.7153,2.77535 0.91558,4.17734a83.00311,83.00311 0 0 1 -1.55935,30.82217zm-13.89823,-46.37988l-0.30043,0c-11.35177,-0.14306 -22.53187,-7.72521 -27.81076,-18.86239c-6.8597,-14.44901 -2.83973,-33.99093 9.34894,-45.44999c11.96693,-11.25878 30.93661,-14.88534 47.23824,-9.01275c1.64518,0.58654 3.2403,1.3233 4.81395,2.09582c-6.9813,2.89695 -12.96119,8.2903 -16.30878,15.0284c-1.23031,-0.44348 -2.43201,-0.9585 -3.71239,-1.24462c-10.20729,-2.25319 -21.26579,0.92989 -28.16841,8.12578c-6.50921,6.78102 -8.90545,17.11707 -6.12295,26.33725c2.50354,8.26169 8.6551,14.04844 16.89533,15.8796c8.19731,1.83831 17.02408,-1.3233 22.50325,-8.03994c4.52068,-5.54356 5.85113,-12.5177 3.73385,-19.04122c2.83258,4.84256 3.82684,10.61501 2.66091,15.57918c-2.48923,10.48626 -13.33314,18.59773 -24.77075,18.59773l0,0.00715zm8.23307,-30.45021c0.97996,2.18166 0.66523,4.29178 -0.94419,6.266c-2.02429,2.47493 -5.43626,3.74101 -8.31891,3.1187c-3.94844,-0.87982 -5.60793,-3.78392 -6.29462,-6.06572c-1.27323,-4.2131 -0.14306,-9.2631 2.74674,-12.28165c2.71813,-2.83258 6.93838,-4.442 11.21586,-4.442c1.18739,0 2.38194,0.1216 3.54072,0.37911c2.43201,0.53647 4.73527,1.66664 6.78817,3.29037a7.15297,7.15297 0 0 0 -8.72663,9.72804l-0.00715,0.00715zm37.58172,58.90474a64.81309,64.81309 0 0 1 -23.98392,15.49334c1.82401,-9.68513 2.09582,-19.69214 0.7153,-29.39872c-0.28612,-2.00283 -0.72245,-4.24171 -1.57365,-6.36615c8.69802,-5.30751 15.37174,-13.5978 17.71792,-23.49752c0.50071,-2.12443 0.75106,-4.31324 0.82259,-6.50921c4.64228,0.10014 8.94122,1.73817 11.96693,3.3619c4.54929,2.43201 8.68371,5.85829 12.67507,9.31317c-1.97422,13.89823 -8.24738,27.2886 -18.34023,37.60318zm9.03421,-53.22528c-3.90552,-2.08867 -9.55637,-4.17734 -15.82238,-4.16303a37.31706,37.31706 0 0 0 -5.16445,-13.44759a34.66331,34.66331 0 0 0 -10.48626,-10.65793a24.51324,24.51324 0 0 1 18.13279,-13.12571a58.29674,58.29674 0 0 1 20.76508,29.7063c1.8097,6.02996 2.58222,12.2745 2.53931,18.5262a62.88895,62.88895 0 0 0 -9.96409,-6.83824z"/>
  </g>
 </g>
</svg>