<svg width="1024" height="400" xmlns="http://www.w3.org/2000/svg">
    <g>
        <title>background</title>
        <rect fill="none" id="canvas_background" height="402" width="1026" y="-1" x="-1"/>
    </g>
    <g>
        <title>Layer 1</title>
        <g stroke="null" id="logo-group">
            <g stroke="null" id="logo-center">
                <g stroke="null" font-style="normal" font-weight="normal" font-size="72px" font-family="'Brandmark Stencil 1'" text-anchor="middle" id="title">
                    <path stroke="#3b3569" transform="translate(0,334) " fill="#3b3569" stroke-miterlimit="2" stroke-width="10" d="m83.54395,-27.0069c-2.8421,0 -5.36841,-2.21052 -5.36841,-5.36841l0,-207.15738c0,-2.8421 2.52631,-5.36841 5.36841,-5.36841c3.15789,0 5.36841,2.52631 5.36841,5.36841l0,207.15738c0,3.15789 -2.21052,5.36841 -5.36841,5.36841zm118.42076,0c-1.57894,0 -2.8421,-0.63158 -4.10525,-1.57894l-93.47345,-103.57869c-1.57894,-2.21052 -1.57894,-5.36841 0,-7.26314l93.47345,-103.57869c1.89473,-2.21052 5.36841,-2.52631 7.57893,-0.31579c2.21052,1.89473 2.21052,5.36841 0.31579,7.57893l-89.99977,99.78922l89.99977,100.10501c1.89473,2.21052 1.89473,5.6842 -0.31579,7.57893c-0.94737,0.94737 -2.21052,1.26315 -3.47368,1.26315z" id="path98315"/>
                    <path stroke="#743a58" transform="translate(0,334) " fill="#743a58" stroke-miterlimit="2" stroke-width="10" d="m293.73085,-55.11208c2.8421,0 5.36841,-2.52631 5.36841,-5.36841l0,-178.7364c0,-3.15789 -2.52631,-5.36841 -5.36841,-5.36841c-2.8421,0 -5.36841,2.21052 -5.36841,5.36841l0,178.7364c0,2.8421 2.52631,5.36841 5.36841,5.36841zm174.94693,-178.7364l121.57864,0c2.8421,0 5.36841,-2.52631 5.36841,-5.36841c0,-3.15789 -2.52631,-5.36841 -5.36841,-5.36841l-121.57864,0c-2.8421,0 -5.05262,2.21052 -5.05262,5.36841c0,2.8421 2.21052,5.36841 5.05262,5.36841zm0,100.10501l119.05233,0c3.15789,0 5.36841,-2.52631 5.36841,-5.36841c0,-2.8421 -2.21052,-5.36841 -5.36841,-5.36841l-119.05233,0c-2.8421,0 -5.05262,2.52631 -5.05262,5.36841c0,2.8421 2.21052,5.36841 5.05262,5.36841zm121.57864,96.31555l-296.52557,0c-2.8421,0 -5.36841,2.21052 -5.36841,5.36841c0,2.8421 2.52631,5.05262 5.36841,5.05262l296.52557,0c2.8421,0 5.36841,-2.21052 5.36841,-5.05262c0,-3.15789 -2.52631,-5.36841 -5.36841,-5.36841z" id="path98317"/>
                    <path stroke="#ac3f48" transform="translate(0,334) " fill="#ac3f48" stroke-miterlimit="2" stroke-width="10" d="m676.88108,-244.58529c-2.8421,0 -5.36841,2.21052 -5.36841,5.36841l0,207.15738c0,2.8421 2.52631,5.05262 5.36841,5.05262c2.8421,0 5.36841,-2.21052 5.36841,-5.05262l0,-207.15738c0,-3.15789 -2.52631,-5.36841 -5.36841,-5.36841z" id="path98319"/>
                    <path stroke="#e54437" transform="translate(0,334) " fill="#e54437" stroke-miterlimit="2" stroke-width="10" d="m940.45608,-244.5853c-2.8421,0 -5.05262,2.21052 -5.05262,5.36841l0,191.05215l-144.63122,-194.21004c-1.26315,-1.89473 -3.78946,-2.8421 -5.6842,-1.89473c-2.21052,0.63158 -3.78946,2.52631 -3.78946,5.05262l0,207.15738c0,2.8421 2.52631,5.05262 5.36841,5.05262c2.8421,0 5.36841,-2.21052 5.36841,-5.05262l0,-191.05215l144.31543,194.21004c0.94737,1.26315 2.52631,1.89473 4.10525,1.89473l1.89473,0c2.21052,-0.94737 3.47368,-2.8421 3.47368,-5.05262l0,-207.15738c0,-3.15789 -2.21052,-5.36841 -5.36841,-5.36841z" id="path98321"/>
                </g>
            </g>
        </g>
    </g>
</svg>