<svg data-v-2cb57da0="" version="1.0" xmlns="http://www.w3.org/2000/svg" xmlns:xlink="http://www.w3.org/1999/xlink" width="100%" height="100%" viewBox="0 0 340.000000 250.000000" preserveAspectRatio="xMidYMid meet" color-interpolation-filters="sRGB" style="margin: auto;"><rect data-v-2cb57da0="" x="0" y="0" width="100%" height="100%" fill="#00000000" fill-opacity="1" class="background"></rect> <rect data-v-2cb57da0="" x="0" y="0" width="100%" height="100%" fill="url(#watermark)" fill-opacity="1" class="watermarklayer"></rect> <g data-v-2cb57da0="" fill="#2ebef3" class="icon-text-wrapper icon-svg-group iconsvg" transform="translate(84.19999694824219,84.98395538330078)"><g class="iconsvg-imagesvg" transform="translate(0,0)" mask="url(#159648d1-a58e-46dd-91af-f119eb46a8f2)"><g><rect fill="#2ebef3" fill-opacity="0" stroke-width="2" x="0" y="0" width="171.60000000000008" height="80.03208745697579" class="image-rect"></rect> <svg filter="url(#colors1356144371)" x="0" y="0" width="171.60000000000008" height="80.03208745697579" filtersec="colorsf8817446581" class="image-svg-svg primary" style="overflow: visible;"><svg xmlns="http://www.w3.org/2000/svg" viewBox="-0.9898899999999999 -0.9898899999999999 56.57978 28.52252"><path d="M24.5 18.1c-1.4 3.3-4.2 5.9-7.9 6.9-6.5 1.8-13.2-1.9-15.1-8.4S3.4 3.4 9.9 1.5c3.2-.9 6.3-.6 9.7 1.3L40 14.2c3.9 2.2 6.6 2.3 9.9 1.4 1.3-.4 2.6-1 3.6-1.7M1.1 12.7c1.1-.8 2.3-1.3 3.6-1.7 3.2-.9 6.3-.6 9.7 1.3l20.4 11.3c3.9 2.2 6.6 2.3 9.9 1.4 6.5-1.8 10.3-8.6 8.4-15.1S44.5-.4 38 1.5c-3.7 1-6.5 3.7-7.9 6.9" fill="none" stroke="#282828" stroke-width="2" stroke-miterlimit="10"></path></svg></svg> <defs><filter id="colors1356144371"><feColorMatrix type="matrix" values="0 0 0 0 0.0859375  0 0 0 0 0.55859375  0 0 0 0 0.46875  0 0 0 1 0" class="icon-fecolormatrix"></feColorMatrix></filter> <filter id="colorsf8817446581"><feColorMatrix type="matrix" values="0 0 0 0 0.99609375  0 0 0 0 0.99609375  0 0 0 0 0.99609375  0 0 0 1 0" class="icon-fecolormatrix"></feColorMatrix></filter> <filter id="colorsb8622827677"><feColorMatrix type="matrix" values="0 0 0 0 0  0 0 0 0 0  0 0 0 0 0  0 0 0 1 0" class="icon-fecolormatrix"></feColorMatrix></filter></defs></g><rect v-gra="id" width="183.60000610351562" height="92.03208923339844" transform="translate(-6, -6)" style="pointer-events:none;" fill="url(#Zdyh3yDZRumknFKdpCrm-)"></rect></g> <g transform="translate(6.930000305175781,40.03208923339844)"><g data-gra="path-name" fill-rule="" class="tp-name iconsvg-namesvg" fill="url(#b9181bf2-0bf2-48c2-a2f0-9fb81bb1ef00)"><g transform="scale(1)"><g><path d="M4.98-37.56L18.84-37.56 17.1-27.24 29.22-37.56 42.42-37.56 22.86-20.28 40.14-3.6 26.34-3.6 15.36-15.12 13.62-3.6 2.7-3.6 6.72-35.28 4.98-37.56ZM50.4-41.04L63.66-41.04 59.04-9.36 63.06-3.6 51-3.6Q49.26-3.6 48.39-4.74 47.52-5.88 47.52-7.62L47.52-7.62 52.14-39.3 50.4-41.04ZM101.28-28.92L99-13.98 80.58-13.98 79.98-9.36 96.12-9.36 99-11.64 97.26-3.6 71.94-3.6Q70.2-3.6 69.33-4.74 68.46-5.88 68.46-7.62L68.46-7.62 71.34-28.92 101.28-28.92ZM89.22-23.16L82.26-23.16 81.72-19.74 88.62-19.74 89.22-23.16ZM122.22-37.56L121.08-30.66 110.1-30.66 110.7-37.56 122.22-37.56ZM107.82-28.92L121.08-28.92 117.6-3.6 106.08-3.6 109.56-27.24 107.82-28.92ZM128.76-28.92L160.44-28.92 156.96-3.6 145.44-3.6 148.32-23.16 141.42-23.16 138.54-3.6 127.02-3.6 130.5-27.24 128.76-28.92Z" transform="translate(-2.700000047683716, 41.040000915527344)"></path></g> <!----> <!----> <!----> <!----> <!----> <!----> <!----></g></g> <!----></g></g><defs v-gra="od"><linearGradient x1="0" y1="1" x2="0" y2="0" id="b9181bf2-0bf2-48c2-a2f0-9fb81bb1ef00"><stop offset="0%" stop-color="#00c9ff"></stop><stop offset="100%" stop-color="#92fe9d"></stop></linearGradient><filter id="42443b3f1de60f6b6fd3b6a9844b4764" filterUnits="userSpaceOnUse"><feColorMatrix type="matrix" values="0 0 0 0 0.99609375  0 0 0 0 0.99609375  0 0 0 0 0.99609375  0 0 0 1 0"></feColorMatrix></filter></defs><defs v-gra="id"><filter id="9461ad9f-ebc8-4530-8a11-db23908f6abc" filterUnits="userSpaceOnUse"><feColorMatrix type="matrix" values="0 0 0 0 0.99609375  0 0 0 0 0.99609375  0 0 0 0 0.99609375  0 0 0 1 0"></feColorMatrix></filter><linearGradient x1="0" y1="1" x2="0" y2="0" id="Zdyh3yDZRumknFKdpCrm-"><stop offset="0%" stop-color="#ff51f9"></stop><stop offset="50%" stop-color="#a348ff"></stop><stop offset="100%" stop-color="#3978ff"></stop></linearGradient><filter id="42443b3f1de60f6b6fd3b6a9844b4764" filterUnits="userSpaceOnUse"><feColorMatrix type="matrix" values="0 0 0 0 0.99609375  0 0 0 0 0.99609375  0 0 0 0 0.99609375  0 0 0 1 0"></feColorMatrix></filter></defs><mask v-gra="im" id="159648d1-a58e-46dd-91af-f119eb46a8f2"><g class="iconsvg-imagesvg" filter="url(#9461ad9f-ebc8-4530-8a11-db23908f6abc)"><g><rect fill="#2ebef3" fill-opacity="0" stroke-width="2" x="0" y="0" width="171.60000000000008" height="80.03208745697579" class="image-rect"></rect> <svg x="0" y="0" width="171.60000000000008" height="80.03208745697579" filtersec="colorsf8817446581" class="image-svg-svg primary" style="overflow: visible;"><svg xmlns="http://www.w3.org/2000/svg" viewBox="-0.9898899999999999 -0.9898899999999999 56.57978 28.52252"><path d="M24.5 18.1c-1.4 3.3-4.2 5.9-7.9 6.9-6.5 1.8-13.2-1.9-15.1-8.4S3.4 3.4 9.9 1.5c3.2-.9 6.3-.6 9.7 1.3L40 14.2c3.9 2.2 6.6 2.3 9.9 1.4 1.3-.4 2.6-1 3.6-1.7M1.1 12.7c1.1-.8 2.3-1.3 3.6-1.7 3.2-.9 6.3-.6 9.7 1.3l20.4 11.3c3.9 2.2 6.6 2.3 9.9 1.4 6.5-1.8 10.3-8.6 8.4-15.1S44.5-.4 38 1.5c-3.7 1-6.5 3.7-7.9 6.9" fill="none" stroke="#282828" stroke-width="2" stroke-miterlimit="10"></path></svg></svg> <defs><filter id="colors1356144371"><feColorMatrix type="matrix" values="0 0 0 0 0.0859375  0 0 0 0 0.55859375  0 0 0 0 0.46875  0 0 0 1 0" class="icon-fecolormatrix"></feColorMatrix></filter> <filter id="colorsf8817446581"><feColorMatrix type="matrix" values="0 0 0 0 0.99609375  0 0 0 0 0.99609375  0 0 0 0 0.99609375  0 0 0 1 0" class="icon-fecolormatrix"></feColorMatrix></filter> <filter id="colorsb8622827677"><feColorMatrix type="matrix" values="0 0 0 0 0  0 0 0 0 0  0 0 0 0 0  0 0 0 1 0" class="icon-fecolormatrix"></feColorMatrix></filter></defs></g></g></mask></svg>
