<?xml version="1.0" standalone="no"?><!DOCTYPE svg PUBLIC "-//W3C//DTD SVG 1.1//EN"
        "http://www.w3.org/Graphics/SVG/1.1/DTD/svg11.dtd">
<svg t="1676476491243" class="icon" viewBox="0 0 1024 1024" version="1.1" xmlns="http://www.w3.org/2000/svg"
     p-id="10483" xmlns:xlink="http://www.w3.org/1999/xlink" width="200" height="200">
    <path d="M433.838704 569.173564s-176.542788-73.042259-259.151247-329.122084c0 0-128.1039 169.824052-66.675457 360.156246s137.254179 236.979418 137.254179 236.979418 199.130539-23.931498 255.503934-101.228956c0 0-61.108504-26.874944-66.931409-166.784624z"
          fill="#E0EBFE" p-id="10484"></path>
    <path d="M754.642353 355.13383a274.412376 274.412376 0 0 0-86.927647-15.99699 574.675889 574.675889 0 0 0-49.75064-227.093278C597.199972 65.716277 571.348835 20.316818 523.357863 2.080249a31.770023 31.770023 0 0 0-15.581069-1.791663C306.438671 26.971566 121.385484 188.925098 77.297778 377.017714a511.263818 511.263818 0 0 0-9.662182 176.990703c15.485087 131.399281 81.96858 255.951849 182.365693 341.695719 92.462605 78.897157 216.919192 128.42384 337.792452 128.42384 98.189528 0 194.011502-32.665855 268.429502-108.779536 90.798918-92.814539 125.76834-231.540441 89.199219-353.501497-28.666607-95.438046-101.74086-174.687137-190.780109-206.713113z m-247.313474-290.153414c21.180016 11.581821 36.377157 37.84888 52.278165 73.266216a511.135843 511.135843 0 0 1 44.183688 206.7771c-47.25511 9.790158-91.502786 31.578059-125.960304 64.019957-37.496946 35.257367-62.100317 81.96858-72.050445 131.143328-44.27967-28.634613-85.040002-69.394945-121.033231-123.080845-33.081776-49.398707-59.252853-104.172403-83.952206-158.370207 69.810867-99.373305 184.093367-174.751125 306.502339-193.755549zM131.207637 546.55382a447.275856 447.275856 0 0 1 8.382423-154.946851c8.190459-34.937427 22.331799-68.755065 40.728338-100.717053 22.779715 49.174749 47.351092 98.44548 77.87335 144.004909 41.848127 62.484245 90.127045 109.099476 143.237053 140.22962-2.239579 38.264801 4.223206 76.689573 20.636118 111.243072 10.749978 22.715727 25.819143 42.807947 43.287857 60.116691a357.852679 357.852679 0 0 1-207.640938 68.211167c-69.266969-72.754313-114.76241-168.160365-126.504201-268.141555z m536.539063 404.211957c-126.760153 30.522258-273.548539-16.15696-376.18523-103.756481-0.543898-0.47991-0.991813-1.023807-1.535711-1.471723a389.910648 389.910648 0 0 0 200.250328-77.809362c33.369722 24.315426 72.882289 39.032657 113.130717 39.544561a180.446054 180.446054 0 0 0 67.219354-13.053544c1.983627 5.854899 3.199398 12.413665 4.09523 18.684484a371.258157 371.258157 0 0 1-6.974688 137.862065z m-62.164305-207.448973h-1.343747c-50.774448-0.63988-100.781041-34.5535-124.392599-84.368129-30.682228-64.627842-12.701611-152.035398 41.816133-203.289756 53.52593-50.358526 138.373968-66.579475 211.288252-40.312416 7.358616 2.623506 14.493273 5.918887 21.531949 9.374236-31.226126 12.957562-57.973094 37.081024-72.946277 67.219355-5.502965-1.983627-10.877954-4.287193-16.604876-5.566953-45.655411-10.078104-95.118106 4.159218-125.992298 36.345163-29.114523 30.330294-39.832507 76.561597-27.386848 117.801838 11.197893 36.953048 38.712717 62.836179 75.569784 71.026638 36.665102 8.222453 76.145675-5.918887 100.653064-35.961235 20.220196-24.795335 26.171077-55.989467 16.700858-85.167977 12.669617 21.659925 17.11678 47.479068 11.901761 69.682891-11.133905 46.903176-59.636781 83.184351-110.795156 83.184351z m36.825072-136.198378c4.383175 9.758164 2.97544 19.196389-4.223205 28.026727-9.054297 11.069917-24.315426 16.732852-37.209 13.949376-17.660678-3.93526-25.083281-16.924816-28.154704-27.130896-5.694929-18.844455-0.63988-41.432206 12.285689-54.933666 12.157713-12.669617 31.034162-19.868262 50.166562-19.868262 5.311001 0 10.653996 0.543898 15.837021 1.695681 10.877954 2.399549 21.180016 7.454598 30.362288 14.717232a31.993981 31.993981 0 0 0-39.032657 43.511814z m168.096377 263.470434a289.897463 289.897463 0 0 1-107.275819 69.298964c8.158465-43.31985 9.374236-88.07943 3.199398-131.495263-1.279759-8.958315-3.231392-18.972431-7.038676-28.474643 38.904681-23.739534 68.755065-60.820558 79.249092-105.100228 2.239579-9.502212 3.359368-19.292371 3.679308-29.114523 20.764094 0.447916 39.992476 7.774537 53.52593 15.037171 20.348172 10.877954 38.840693 26.203071 56.693335 41.656164-8.830339 62.164305-36.88906 122.057038-82.032568 168.192358z m40.408398-238.067213c-17.468714-9.342242-42.743959-18.684485-70.770686-18.620497a166.9126 166.9126 0 0 0-23.099655-60.148685 155.042833 155.042833 0 0 0-46.903176-47.671032 109.643373 109.643373 0 0 1 81.104742-58.708955 260.750946 260.750946 0 0 1 92.878528 132.871004c8.094477 26.970926 11.549827 54.901672 11.357863 82.864411a281.291082 281.291082 0 0 0-44.567616-30.586246z"
          fill="#27205b" p-id="10485" data-spm-anchor-id="a313x.7781069.0.i45" class=""></path>
</svg>